<?xml version="1.0" encoding="utf-8"?>
<!-- Generator: Adobe Illustrator 20.1.0, SVG Export Plug-In . SVG Version: 6.00 Build 0)  -->
<svg version="1.1" id="Layer_1" xmlns="http://www.w3.org/2000/svg" xmlns:xlink="http://www.w3.org/1999/xlink" x="0px" y="0px"
	 viewBox="0 0 50 50" style="enable-background:new 0 0 50 50;" xml:space="preserve">
<style type="text/css">
	.st0{stroke:#808285;stroke-width:2;stroke-miterlimit:10;}
	.st1{fill:#808285;}
	.st2{fill:none;}
</style>
<path class="st0" d="M25,1.9c12.8,0,23.1,10.4,23.1,23.1c0,12.8-10.4,23.1-23.1,23.1C12.2,48.1,1.9,37.8,1.9,25
	C1.9,12.2,12.2,1.9,25,1.9 M25,1.3C11.9,1.3,1.3,11.9,1.3,25c0,13.1,10.6,23.7,23.7,23.7c13.1,0,23.7-10.6,23.7-23.7
	C48.7,11.9,38.1,1.3,25,1.3"/>
<polygon class="st1" points="16,33 17.2,34.2 25.9,26.2 33.9,17.4 32.8,16.3 24,24.3 "/>
<polygon class="st1" points="32.8,34.2 33.9,33 25.9,24.3 17.2,16.3 16,17.4 24,26.2 "/>
<rect x="1.3" y="1.6" class="st2" width="47.4" height="47.4"/>
</svg>
