<?xml version="1.0" encoding="utf-8"?>
<!-- Generator: Adobe Illustrator 20.1.0, SVG Export Plug-In . SVG Version: 6.00 Build 0)  -->
<svg version="1.1" id="Layer_1" xmlns="http://www.w3.org/2000/svg" xmlns:xlink="http://www.w3.org/1999/xlink" x="0px" y="0px"
	 viewBox="0 0 25 25" style="enable-background:new 0 0 25 25;" xml:space="preserve">
<style type="text/css">
	.st0{fill:#6D6E71;stroke:#6D6E71;stroke-width:0.75;stroke-miterlimit:10;}
	.st1{fill:#6D6E71;}
	.st2{fill:none;}
</style>
<path class="st0" d="M12.5,24.2C6,24.2,0.8,19,0.8,12.5C0.8,6,6,0.8,12.5,0.8C19,0.8,24.2,6,24.2,12.5C24.2,19,19,24.2,12.5,24.2
	 M12.5,24.5c6.6,0,12-5.4,12-12c0-6.6-5.4-12-12-12c-6.6,0-12,5.4-12,12C0.5,19.1,5.9,24.5,12.5,24.5"/>
<polygon class="st1" points="17.9,10.1 12.5,14.6 7.1,10.1 6.5,10.6 11.4,15.5 12.2,16.3 12.8,16.3 13.6,15.5 18.5,10.6 "/>
<rect x="0.5" y="0.5" class="st2" width="24" height="24"/>
</svg>
