<?xml version="1.0" encoding="utf-8"?>
<!-- Generator: Adobe Illustrator 20.1.0, SVG Export Plug-In . SVG Version: 6.00 Build 0)  -->
<svg version="1.1" id="Layer_1" xmlns="http://www.w3.org/2000/svg" xmlns:xlink="http://www.w3.org/1999/xlink" x="0px" y="0px"
	 viewBox="0 0 25 25" style="enable-background:new 0 0 25 25;" xml:space="preserve">
<style type="text/css">
	.st0{fill:none;stroke:#6D6E70;stroke-miterlimit:10;}
	.st1{fill:#6D6E70;}
	.st2{fill:none;}
</style>
<path class="st0" d="M12.4,0.5c6.5,0,11.8,5.3,11.8,11.8c0,6.5-5.3,11.8-11.8,11.8c-6.5,0-11.8-5.3-11.8-11.8
	C0.6,5.8,5.9,0.5,12.4,0.5 M12.4,0.3C5.7,0.3,0.3,5.7,0.3,12.3c0,6.7,5.4,12.1,12.1,12.1c6.7,0,12.1-5.4,12.1-12.1
	C24.5,5.7,19.1,0.3,12.4,0.3"/>
<polygon class="st1" points="15.1,7.8 18.8,12.3 15.1,16.8 15.6,17.3 20.3,12.6 20.3,12 15.6,7.3 "/>
<polygon class="st1" points="9.6,16.5 6,12.1 9.6,7.8 9.1,7.3 4.5,11.9 4.5,12.4 9.1,17 "/>
<rect x="0.1" y="0" class="st2" width="24.9" height="24.8"/>
<line class="st0" x1="11.3" y1="17.7" x2="13.7" y2="7.2"/>
</svg>
