<?xml version="1.0" encoding="utf-8"?>
<!-- Generator: Adobe Illustrator 20.1.0, SVG Export Plug-In . SVG Version: 6.00 Build 0)  -->
<svg version="1.1" id="Layer_1" xmlns="http://www.w3.org/2000/svg" xmlns:xlink="http://www.w3.org/1999/xlink" x="0px" y="0px"
	 viewBox="0 0 25 25" style="enable-background:new 0 0 25 25;" xml:space="preserve">
<style type="text/css">
	.st0{fill:#6D6E71;stroke:#6D6E71;stroke-width:0.75;stroke-miterlimit:10;}
	.st1{fill:#6D6E71;}
	.st2{fill:none;}
</style>
<path class="st0" d="M12.5,0.8C19,0.8,24.2,6,24.2,12.5c0,6.5-5.3,11.7-11.7,11.7C6,24.2,0.8,19,0.8,12.5C0.8,6,6,0.8,12.5,0.8
	 M12.5,0.5c-6.6,0-12,5.4-12,12c0,6.6,5.4,12,12,12c6.6,0,12-5.4,12-12C24.5,5.9,19.1,0.5,12.5,0.5"/>
<polygon class="st1" points="7.1,14.9 12.5,10.4 17.9,14.9 18.5,14.4 13.6,9.5 12.8,8.7 12.2,8.7 11.4,9.5 6.5,14.4 "/>
<rect x="0.5" y="0.5" class="st2" width="24" height="24"/>
</svg>
